{"title":"WWE Friday Night Smackdown 2010 12 31 SAFCuk009","uid":6075572,"size":964844559,"categoryP":"video","categoryS":"tv_shows","magnet":"?xt=urn:btih:6863c19e7fbbca4df5951e708a637698e70ac045&amp;dn=WWE+Friday+Night+Smackdown+2010+12+31+SAFCuk009&amp;tr=udp%3A%2F%2Ftracker.openbittorrent.com%3A80&amp;tr=udp%3A%2F%2Fopen.demonii.com%3A1337&amp;tr=udp%3A%2F%2Ftracker.coppersurfer.tk%3A6969&amp;tr=udp%3A%2F%2Fexodus.desync.com%3A6969","seeders":1,"leechers":0,"uploader":"SAFCukO09","files":2,"time":1293816895,"description":"Format : AVI\nFormat/Info : Audio Video Interleave\nFile size : 920 MiB\nDuration : 1h 23mn\nOverall bit rate : 1 550 Kbps\nWriting application : Lavf52.47.0\n\nVideo\nID : 0\nFormat : xvid\nCodec ID : xvid\nDuration : 1h 23mn\nBit rate : 1 410 Kbps\nWidth : 692 pixels\nHeight : 356 pixels\nDisplay aspect ratio : 1.944\nFrame rate : 25.000 fps\nBits/(Pixel*Frame) : 0.229\nStream size : 837 MiB (91%)\n\nAudio\nID : 1\nFormat : MPEG Audio\nFormat version : Version 1\nFormat profile : Layer 3\nMode : Joint stereo\nMode extension : MS Stereo\nCodec ID : 55\nCodec ID/Hint : MP3\nDuration : 1h 23mn\nBit rate mode : Constant\nBit rate : 128 Kbps\nChannel(s) : 2 channels\nSampling rate : 44.1 KHz\nStream size : 76.0 MiB (8%)\nAlignment : Aligned on interleaves\nInterleave, duration : 26 ms (0.65 video frame) ","torrent":{"xt":"urn:btih:6863c19e7fbbca4df5951e708a637698e70ac045","amp;dn":"WWE+Friday+Night+Smackdown+2010+12+31+SAFCuk009","amp;tr":["udp%3A%2F%2Ftracker.openbittorrent.com%3A80","udp%3A%2F%2Fopen.demonii.com%3A1337","udp%3A%2F%2Ftracker.coppersurfer.tk%3A6969","udp%3A%2F%2Fexodus.desync.com%3A6969"],"infoHash":"6863c19e7fbbca4df5951e708a637698e70ac045","infoHashBuffer":{"type":"Buffer","data":[104,99,193,158,127,187,202,77,245,149,30,112,138,99,118,152,231,10,192,69]},"announce":[],"urlList":[]}}